<svg width="503" height="558" viewBox="0 0 503 558" fill="none" xmlns="http://www.w3.org/2000/svg">
<g filter="url(#filter0_d_361_558)">
<path d="M327.206 316.648C327.206 316.648 325.16 354.341 338.762 367.691C352.364 381.041 387.032 382.021 387.032 382.021C387.032 382.021 352.426 382.548 338.762 395.426C325.098 408.304 327.206 447.394 327.206 447.394C327.206 447.394 327.579 407.451 314.262 395.426C300.946 383.401 195 382.021 195 382.021C195 382.021 300.98 380.189 314.262 367.691C327.544 355.193 327.206 316.648 327.206 316.648Z" fill="white"/>
<path d="M170.373 233.648C170.373 233.648 172.418 271.341 158.817 284.691C145.215 298.041 110.547 299.021 110.547 299.021C110.547 299.021 145.152 299.548 158.817 312.426C172.481 325.304 170.373 364.394 170.373 364.394C170.373 364.394 170 324.451 183.316 312.426C196.633 300.401 302.579 299.021 302.579 299.021C302.579 299.021 196.599 297.189 183.316 284.691C170.034 272.193 170.373 233.648 170.373 233.648Z" fill="white"/>
<path d="M100.521 190.888C100.521 190.888 187.964 195.633 218.934 164.078C249.904 132.524 252.178 52.0999 252.178 52.0999C252.178 52.0999 253.402 132.38 283.277 164.078C313.151 195.777 403.834 190.888 403.834 190.888C403.834 190.888 311.173 190.022 283.277 220.915C255.38 251.808 252.178 497.587 252.178 497.587C252.178 497.587 247.929 251.728 218.934 220.915C189.94 190.102 100.521 190.888 100.521 190.888Z" fill="white"/>
</g>
<defs>
<filter id="filter0_d_361_558" x="-56.1" y="-0.000389099" width="615.201" height="557.687" filterUnits="userSpaceOnUse" color-interpolation-filters="sRGB">
<feFlood flood-opacity="0" result="BackgroundImageFix"/>
<feColorMatrix in="SourceAlpha" type="matrix" values="0 0 0 0 0 0 0 0 0 0 0 0 0 0 0 0 0 0 127 0" result="hardAlpha"/>
<feOffset dy="4"/>
<feGaussianBlur stdDeviation="28.05"/>
<feComposite in2="hardAlpha" operator="out"/>
<feColorMatrix type="matrix" values="0 0 0 0 1 0 0 0 0 1 0 0 0 0 1 0 0 0 0.4 0"/>
<feBlend mode="normal" in2="BackgroundImageFix" result="effect1_dropShadow_361_558"/>
<feBlend mode="normal" in="SourceGraphic" in2="effect1_dropShadow_361_558" result="shape"/>
</filter>
</defs>
</svg>
