<svg width="70" height="49" viewBox="0 0 70 49" fill="none" xmlns="http://www.w3.org/2000/svg">
<mask id="mask0_374_93" style="mask-type:alpha" maskUnits="userSpaceOnUse" x="0" y="0" width="70" height="49">
<path d="M0 1.31979C0 0.750536 0.461474 0.289062 1.03073 0.289062H2.06146V29.1495H1.03073C0.461473 29.1495 0 28.688 0 28.1188V1.31979Z" fill="black"/>
<path d="M5.97827 4.41159C5.97827 3.84234 6.43975 3.38086 7.009 3.38086H8.03973V21.1094C8.03973 21.6787 7.57826 22.1402 7.009 22.1402C6.43975 22.1402 5.97827 21.6787 5.97827 21.1094V4.41159Z" fill="black"/>
<path d="M9.27682 10.9659C9.11706 10.4195 8.54462 10.1061 7.99824 10.2658L7.00894 10.5551L12.3579 28.8483C12.5177 29.3947 13.0901 29.7081 13.6365 29.5483C14.1829 29.3886 14.4963 28.8161 14.3365 28.2697L9.27682 10.9659Z" fill="black"/>
<path d="M14.7757 12.1807C14.616 11.6343 14.0435 11.3209 13.4971 11.4807C12.9508 11.6404 12.6374 12.2129 12.7971 12.7593L17.3924 28.4748C17.5521 29.0211 18.1246 29.3345 18.671 29.1748C19.2173 29.015 19.5307 28.4426 19.371 27.8962L14.7757 12.1807Z" fill="black"/>
<path d="M22.6761 13.4824C23.2453 13.4824 23.7068 13.0209 23.7068 12.4517C23.7068 11.8824 23.2453 11.421 22.6761 11.421H14.0179C13.4487 11.421 12.9872 11.8824 12.9872 12.4517C12.9872 13.0209 13.4487 13.4824 14.0179 13.4824H22.6761Z" fill="black"/>
<path d="M22.6761 20.0781C23.2453 20.0781 23.7068 19.6167 23.7068 19.0474C23.7068 18.4781 23.2453 18.0167 22.6761 18.0167H16.6978C16.1286 18.0167 15.6671 18.4781 15.6671 19.0474C15.6671 19.6167 16.1286 20.0781 16.6978 20.0781H22.6761Z" fill="black"/>
<path d="M47.4137 2.34961C47.983 2.34961 48.4445 1.88814 48.4445 1.31888C48.4445 0.749622 47.983 0.288148 47.4137 0.288148L11.9566 0.288148C11.3873 0.288148 10.9259 0.749622 10.9259 1.31888C10.9259 1.88814 11.3873 2.34961 11.9566 2.34961L47.4137 2.34961Z" fill="black"/>
<path d="M23.0884 32.6543C23.6577 32.6543 24.1191 32.1928 24.1191 31.6236C24.1191 31.0543 23.6577 30.5928 23.0884 30.5928H1.03078C0.461523 30.5928 4.76837e-05 31.0543 4.76837e-05 31.6236C4.76837e-05 32.1928 0.461521 32.6543 1.03078 32.6543H23.0884Z" fill="black"/>
<path d="M68.4406 32.6543C69.0098 32.6543 69.4713 32.1928 69.4713 31.6236C69.4713 31.0543 69.0098 30.5928 68.4406 30.5928H46.383C45.8137 30.5928 45.3522 31.0543 45.3522 31.6236C45.3522 32.1928 45.8137 32.6543 46.383 32.6543H68.4406Z" fill="black"/>
<path d="M68.4406 48.3203C69.0098 48.3203 69.4713 47.8588 69.4713 47.2896C69.4713 46.7203 69.0098 46.2589 68.4406 46.2589H46.383C45.8137 46.2589 45.3522 46.7203 45.3522 47.2896C45.3522 47.8588 45.8137 48.3203 46.383 48.3203H68.4406Z" fill="black"/>
<path d="M41.5721 48.0602C41.9746 48.4628 42.6272 48.4628 43.0297 48.0602C43.4323 47.6577 43.4323 47.0051 43.0297 46.6026L27.3364 30.9092C26.9339 30.5067 26.2813 30.5067 25.8787 30.9092C25.4762 31.3117 25.4762 31.9644 25.8787 32.3669L41.5721 48.0602Z" fill="black"/>
<path d="M10.3073 40.4863C10.8765 40.4863 11.338 40.0249 11.338 39.4556C11.338 38.8863 10.8765 38.4249 10.3073 38.4249H1.0307C0.461448 38.4249 -2.57492e-05 38.8863 -2.57492e-05 39.4556C-2.57492e-05 40.0249 0.461448 40.4863 1.0307 40.4863H10.3073Z" fill="black"/>
<path d="M22.6761 40.4863C23.2453 40.4863 23.7068 40.0249 23.7068 39.4556C23.7068 38.8863 23.2453 38.4249 22.6761 38.4249H13.3995C12.8302 38.4249 12.3687 38.8863 12.3687 39.4556C12.3687 40.0249 12.8302 40.4863 13.3995 40.4863H22.6761Z" fill="black"/>
<path d="M12.3688 38.8384C12.3688 39.4077 12.8302 39.8691 13.3995 39.8691C13.9688 39.8691 14.4302 39.4077 14.4302 38.8384V34.7155C14.4302 34.1462 13.9688 33.6848 13.3995 33.6848C12.8302 33.6848 12.3688 34.1462 12.3688 34.7155V38.8384Z" fill="black"/>
<path d="M25.5621 47.2896C25.5621 47.8588 26.0236 48.3203 26.5929 48.3203C27.1621 48.3203 27.6236 47.8588 27.6236 47.2896V31.6225C27.6236 31.0532 27.1621 30.5917 26.5929 30.5917C26.0236 30.5917 25.5621 31.0532 25.5621 31.6225V47.2896Z" fill="black"/>
<path d="M41.2292 47.2896C41.2292 47.8588 41.6907 48.3203 42.26 48.3203C42.8292 48.3203 43.2907 47.8588 43.2907 47.2896V31.6225C43.2907 31.0532 42.8292 30.5917 42.26 30.5917C41.6907 30.5917 41.2292 31.0532 41.2292 31.6225V47.2896Z" fill="black"/>
<path d="M45.146 47.2896C45.146 47.8588 45.6075 48.3203 46.1767 48.3203C46.746 48.3203 47.2075 47.8588 47.2075 47.2896V31.6225C47.2075 31.0532 46.746 30.5917 46.1767 30.5917C45.6075 30.5917 45.146 31.0532 45.146 31.6225V47.2896Z" fill="black"/>
<path d="M21.6454 38.8384C21.6454 39.4077 22.1069 39.8691 22.6761 39.8691C23.2454 39.8691 23.7068 39.4077 23.7068 38.8384V34.7155C23.7068 34.1462 23.2454 33.6848 22.6761 33.6848C22.1069 33.6848 21.6454 34.1462 21.6454 34.7155V38.8384Z" fill="black"/>
<path d="M16.9041 47.2896C16.9041 47.8588 17.3655 48.3203 17.9348 48.3203C18.504 48.3203 18.9655 47.8588 18.9655 47.2896V39.456C18.9655 38.8868 18.504 38.4253 17.9348 38.4253C17.3655 38.4253 16.9041 38.8868 16.9041 39.456V47.2896Z" fill="black"/>
<path d="M0 39.4556C0 40.0249 0.461474 40.4863 1.03073 40.4863C1.59999 40.4863 2.06146 40.0249 2.06146 39.4556V31.622C2.06146 31.0528 1.59999 30.5913 1.03073 30.5913C0.461474 30.5913 0 31.0528 0 31.622L0 39.4556Z" fill="black"/>
<path d="M9.27661 47.2896C9.27661 47.8588 9.73809 48.3203 10.3073 48.3203C10.8766 48.3203 11.3381 47.8588 11.3381 47.2896V39.456C11.3381 38.8868 10.8766 38.4253 10.3073 38.4253C9.73809 38.4253 9.27661 38.8868 9.27661 39.456V47.2896Z" fill="black"/>
<path d="M10.3073 48.3203C10.8765 48.3203 11.338 47.8588 11.338 47.2896C11.338 46.7203 10.8765 46.2589 10.3073 46.2589H1.0307C0.461448 46.2589 -2.57492e-05 46.7203 -2.57492e-05 47.2896C-2.57492e-05 47.8588 0.461448 48.3203 1.0307 48.3203H10.3073Z" fill="black"/>
<path d="M38.1371 5.44141V4.41067C38.1371 3.84142 37.6756 3.37994 37.1064 3.37994L27.6236 3.37994C27.0544 3.37994 26.5929 3.84142 26.5929 4.41068V5.44141L38.1371 5.44141Z" fill="black"/>
<path d="M38.1371 17.3984V16.3677C38.1371 15.7984 37.6756 15.337 37.1064 15.337H27.6236C27.0544 15.337 26.5929 15.7984 26.5929 16.3677V17.3984H38.1371Z" fill="black"/>
<path d="M38.1371 27.5V28.5307C38.1371 29.1 37.6756 29.5615 37.1064 29.5615H27.6236C27.0544 29.5615 26.5929 29.1 26.5929 28.5307V27.5H38.1371Z" fill="black"/>
<path d="M40.1985 28.5298C40.1985 29.0991 40.66 29.5605 41.2292 29.5605C41.7985 29.5605 42.2599 29.0991 42.2599 28.5298V2.14311C42.2599 1.57385 41.7985 1.11238 41.2292 1.11238C40.66 1.11238 40.1985 1.57385 40.1985 2.14311V28.5298Z" fill="black"/>
<path d="M50.5059 28.5298C50.5059 29.0991 50.9673 29.5605 51.5366 29.5605C52.1058 29.5605 52.5673 29.0991 52.5673 28.5298V1.31853C52.5673 0.749269 52.1058 0.287796 51.5366 0.287796C50.9673 0.287796 50.5059 0.749269 50.5059 1.31853V28.5298Z" fill="black"/>
<path d="M50.9251 27.7381C50.6936 28.2581 50.9274 28.8674 51.4475 29.0989C51.9675 29.3305 52.5768 29.0966 52.8083 28.5765L64.6712 1.93218C64.9027 1.41214 64.6688 0.802867 64.1488 0.571329C63.6287 0.339791 63.0195 0.57367 62.7879 1.09371L50.9251 27.7381Z" fill="black"/>
<path d="M55.048 28.0799C54.8165 28.5999 55.0504 29.2092 55.5704 29.4407C56.0904 29.6723 56.6997 29.4384 56.9313 28.9183L69.0135 1.78115C69.2451 1.26111 69.0112 0.651831 68.4911 0.420293C67.9711 0.188755 67.3618 0.422634 67.1303 0.942677L55.048 28.0799Z" fill="black"/>
<path d="M67.2037 13.688C67.2037 14.2573 67.6652 14.7188 68.2345 14.7188C68.8037 14.7188 69.2652 14.2573 69.2652 13.688V1.31925C69.2652 0.749993 68.8037 0.288521 68.2345 0.288521C67.6652 0.288521 67.2037 0.749994 67.2037 1.31925V13.688Z" fill="black"/>
<path d="M67.2036 20.2852C67.7729 20.2852 68.2344 19.8237 68.2344 19.2544C68.2344 18.6852 67.7729 18.2237 67.2036 18.2237H60.4008C59.8316 18.2237 59.3701 18.6852 59.3701 19.2544C59.3701 19.8237 59.8316 20.2852 60.4008 20.2852H67.2036Z" fill="black"/>
<path d="M68.4406 29.5605C69.0098 29.5605 69.4713 29.0991 69.4713 28.5298C69.4713 27.9606 69.0098 27.4991 68.4406 27.4991H56.278C55.7087 27.4991 55.2472 27.9606 55.2472 28.5298C55.2472 29.0991 55.7087 29.5605 56.278 29.5605H68.4406Z" fill="black"/>
<path d="M54.6288 29.0215C54.6288 29.0215 54.6288 29.0215 54.6288 29.0215C54.6288 29.0215 54.6288 29.0215 54.6288 29.0215L67.5495 0.00107423C67.5495 0.00106901 67.5495 0.00106365 67.5495 0.00106133C67.5495 0.00105901 67.5495 0.00106062 67.5495 0.00106585L54.6288 29.0215Z" fill="black"/>
<path d="M45.7645 28.5298C45.7645 29.0991 46.226 29.5605 46.7953 29.5605C47.3645 29.5605 47.826 29.0991 47.826 28.5298V9.15208C47.826 8.58282 47.3645 8.12135 46.7953 8.12135C46.226 8.12135 45.7645 8.58282 45.7645 9.15208V28.5298Z" fill="black"/>
<path d="M45.7645 4.41159C45.7645 3.84233 46.226 3.38086 46.7953 3.38086C47.3645 3.38086 47.826 3.84233 47.826 4.41159V6.26691C47.826 6.83616 47.3645 7.29764 46.7953 7.29764C46.226 7.29764 45.7645 6.83616 45.7645 6.26691V4.41159Z" fill="black"/>
<path d="M26.5929 28.3247C26.5929 28.894 27.0544 29.3555 27.6236 29.3555C28.1929 29.3555 28.6544 28.894 28.6544 28.3247V5.03023C28.6544 4.46097 28.1929 3.9995 27.6236 3.9995C27.0544 3.9995 26.5929 4.46097 26.5929 5.03023V28.3247Z" fill="black"/>
<path d="M36.0756 28.3247C36.0756 28.894 36.537 29.3555 37.1063 29.3555C37.6755 29.3555 38.137 28.894 38.137 28.3247V5.03023C38.137 4.46097 37.6755 3.9995 37.1063 3.9995C36.537 3.9995 36.0756 4.46097 36.0756 5.03023V28.3247Z" fill="black"/>
<path d="M22.6761 29.5605C23.2453 29.5605 23.7068 29.0991 23.7068 28.5298C23.7068 27.9606 23.2453 27.4991 22.6761 27.4991H18.5531C17.9839 27.4991 17.5224 27.9606 17.5224 28.5298C17.5224 29.0991 17.9839 29.5605 18.5531 29.5605H22.6761Z" fill="black"/>
<path d="M24.1192 3.38086C24.6884 3.38086 25.1499 3.84233 25.1499 4.41159V5.44232L7.21519 5.44232C6.64593 5.44232 6.18446 4.98085 6.18446 4.41159C6.18446 3.84233 6.64593 3.38086 7.21519 3.38086L24.1192 3.38086Z" fill="black"/>
<path d="M23.913 10.5957C24.4823 10.5957 24.9437 10.1342 24.9437 9.56497V8.53424L7.00901 8.53424C6.43976 8.53424 5.97828 8.99572 5.97828 9.56497C5.97828 10.1342 6.43976 10.5957 7.00901 10.5957L23.913 10.5957Z" fill="black"/>
<path d="M25.1499 9.56497C25.1499 10.1342 24.6884 10.5957 24.1192 10.5957H23.0884V5.02976C23.0884 4.4605 23.5499 3.99903 24.1192 3.99903C24.6884 3.99903 25.1499 4.4605 25.1499 5.02976V9.56497Z" fill="black"/>
<path d="M8.03967 28.1177C8.03967 28.687 7.5782 29.1484 7.00894 29.1484H5.97821V23.7886C5.97821 23.2194 6.43969 22.7579 7.00894 22.7579C7.5782 22.7579 8.03967 23.2194 8.03967 23.7886V28.1177Z" fill="black"/>
<path d="M1.64917 0.289062H7.11204C7.62437 0.289062 8.0397 0.704389 8.0397 1.21672C8.0397 1.72905 7.62437 2.14438 7.11204 2.14438H1.64917V0.289062Z" fill="black"/>
<rect x="1.03076" y="27.293" width="5.15365" height="1.85532" fill="black"/>
</mask>
<g mask="url(#mask0_374_93)">
<rect width="69.4713" height="48.8566" fill="white"/>
</g>
</svg>
