<svg width="92" height="319" viewBox="0 0 92 319" fill="none" xmlns="http://www.w3.org/2000/svg">
<path d="M88.8672 289.365V304.74" stroke="#0C0C0C" stroke-width="3.75"/>
<path d="M59.6172 303.615V318.99" stroke="#0C0C0C" stroke-width="3.75"/>
<path d="M25.1172 289.365V304.74" stroke="#0C0C0C" stroke-width="3.75"/>
<path d="M57.7422 273.615L59.2422 303.24" stroke="#0C0C0C" stroke-width="3.75"/>
<path d="M79.4922 264.24L88.8672 288.615L59.6172 303.615L25.8672 288.615L35.6172 264.24" stroke="#0C0C0C" stroke-width="3.75"/>
<path d="M43.8672 11.1152L56.6172 45.6152" stroke="#0C0C0C" stroke-width="3.75"/>
<path d="M57.7422 17.1152L43.1172 39.6152" stroke="#0C0C0C" stroke-width="3.75"/>
<path d="M42.3672 43.3652L56.6172 81.6152" stroke="#0C0C0C" stroke-width="3.75"/>
<path d="M56.8781 49.627L41.6172 73.1052" stroke="#0C0C0C" stroke-width="3.75"/>
<path d="M41.6172 77.8652L55.8672 116.865" stroke="#0C0C0C" stroke-width="3.75"/>
<path d="M56.1281 84.248L40.8672 108.187" stroke="#0C0C0C" stroke-width="3.75"/>
<path d="M42.3672 111.615L56.6172 150.615" stroke="#0C0C0C" stroke-width="3.75"/>
<path d="M56.8781 117.998L41.6172 141.937" stroke="#0C0C0C" stroke-width="3.75"/>
<path d="M41.6172 143.865L55.8672 181.365" stroke="#0C0C0C" stroke-width="3.75"/>
<path d="M56.1281 150.004L40.8672 173.022" stroke="#0C0C0C" stroke-width="3.75"/>
<path d="M40.8672 176.115L55.1172 209.115" stroke="#0C0C0C" stroke-width="3.75"/>
<path d="M55.3781 181.518L40.1172 201.773" stroke="#0C0C0C" stroke-width="3.75"/>
<path d="M38.75 204.615L55.5577 237.615" stroke="#0C0C0C" stroke-width="3.75"/>
<path d="M55.8672 210.018L37.8672 230.273" stroke="#0C0C0C" stroke-width="3.75"/>
<path d="M38.1094 231.615L57.018 270.615" stroke="#0C0C0C" stroke-width="3.75"/>
<path d="M57.3672 238L37.1172 261.939" stroke="#0C0C0C" stroke-width="3.75"/>
<path d="M59.6172 17.4902L72.3672 38.8652" stroke="#0C0C0C" stroke-width="3.75"/>
<path d="M58.8672 46.3652L73.4922 9.99023" stroke="#0C0C0C" stroke-width="3.75"/>
<path d="M57.9395 51.7109L73.6613 74.1909" stroke="#0C0C0C" stroke-width="3.75"/>
<path d="M58.9345 83.2605L73.0891 42.6162" stroke="#0C0C0C" stroke-width="3.75"/>
<path d="M58.6895 86.9609L74.4113 109.441" stroke="#0C0C0C" stroke-width="3.75"/>
<path d="M59.6845 118.511L73.8391 77.8662" stroke="#0C0C0C" stroke-width="3.75"/>
<path d="M58.625 121.826L74.158 141.073" stroke="#0C0C0C" stroke-width="3.75"/>
<path d="M59.3631 149.008L73.8391 113.866" stroke="#0C0C0C" stroke-width="3.75"/>
<path d="M60.1523 151.549L75.7641 172.143" stroke="#0C0C0C" stroke-width="3.75"/>
<path d="M60.9971 180.551L75.3391 143.116" stroke="#0C0C0C" stroke-width="3.75"/>
<path d="M60.1172 182.434L75.6267 201.277" stroke="#0C0C0C" stroke-width="3.75"/>
<path d="M60.8231 209.072L75.3391 174.616" stroke="#0C0C0C" stroke-width="3.75"/>
<path d="M59.4883 210.545L76.7421 230.332" stroke="#0C0C0C" stroke-width="3.75"/>
<path d="M60.1766 238.595L76.5202 202.253" stroke="#0C0C0C" stroke-width="3.75"/>
<path d="M59.5605 240.51L77.5439 261.982" stroke="#0C0C0C" stroke-width="3.75"/>
<path d="M60.3477 270.886L77.2416 231.573" stroke="#0C0C0C" stroke-width="3.75"/>
<path d="M37.1172 230.115L58.1172 239.49L79.4922 230.115" stroke="#0C0C0C" stroke-width="3.75"/>
<path d="M36.3672 201.615L57.3672 210.99L78.7422 201.615" stroke="#0C0C0C" stroke-width="3.75"/>
<path d="M37.1172 173.115L57.5597 182.115L78.3672 173.115" stroke="#0C0C0C" stroke-width="3.75"/>
<path d="M37.8672 141.615L57.1946 150.615L76.8672 141.615" stroke="#0C0C0C" stroke-width="3.75"/>
<path d="M40.1172 110.115L58.3296 119.115L76.8672 110.115" stroke="#0C0C0C" stroke-width="3.75"/>
<path d="M41.6172 74.8652L58.3429 83.8652L75.3672 74.8652" stroke="#0C0C0C" stroke-width="3.75"/>
<path d="M40.8672 39.6152L57.5929 48.6152L74.6172 39.6152" stroke="#0C0C0C" stroke-width="3.75"/>
<path d="M58.1172 15.6152V273.24" stroke="#0C0C0C" stroke-width="3.75"/>
<path d="M73.1172 8.86523L79.4922 263.115L57.3672 273.99L35.6172 263.115L42.7422 9.61523" stroke="#0C0C0C" stroke-width="3.75"/>
<path d="M58.1172 16.3652L44.6172 9.24023L57.3672 2.11523L71.2422 8.86523L58.1172 16.3652Z" stroke="#0C0C0C" stroke-width="3.75"/>
<path d="M59.2422 275.115L88.4922 288.615" stroke="#0C0C0C" stroke-width="3.75"/>
<path d="M36.3672 266.49L57.7422 301.365" stroke="#0C0C0C" stroke-width="3.75"/>
<path d="M78.3672 266.115L60.7422 302.115" stroke="#0C0C0C" stroke-width="3.75"/>
<path d="M56.2422 274.74L26.9922 288.24" stroke="#0C0C0C" stroke-width="3.75"/>
<path d="M40.8383 73.3379L2.26953 111.269L40.8383 93.7379" stroke="#0C0C0C" stroke-width="3.1875"/>
<path d="M30.3203 83.8574V97.2449" stroke="#0C0C0C" stroke-width="3.1875"/>
<path d="M59.1484 77.1699L16.9609 118.66L59.1484 99.484" stroke="#0C0C0C" stroke-width="3.375"/>
<path d="M47.6445 88.6758V103.319" stroke="#0C0C0C" stroke-width="3.375"/>
<path d="M39.6859 176.865L1.11719 214.796L39.6859 197.265" stroke="#0C0C0C" stroke-width="3.1875"/>
<path d="M29.168 187.385V200.772" stroke="#0C0C0C" stroke-width="3.1875"/>
<path d="M57.9961 180.699L15.8086 222.189L57.9961 203.013" stroke="#0C0C0C" stroke-width="3.375"/>
<path d="M46.4902 192.203V206.847" stroke="#0C0C0C" stroke-width="3.375"/>
</svg>
