<svg width="616" height="528" viewBox="0 0 616 528" fill="none" xmlns="http://www.w3.org/2000/svg">
<g filter="url(#filter0_d_361_535)">
<path d="M162.1 181.521C162.1 181.521 243.642 185.946 272.522 156.521C301.401 127.096 303.521 52.0997 303.521 52.0997C303.521 52.0997 304.663 126.961 332.522 156.521C360.38 186.08 444.943 181.521 444.943 181.521C444.943 181.521 358.535 180.713 332.522 209.521C306.508 238.329 303.521 467.521 303.521 467.521C303.521 467.521 299.559 238.255 272.522 209.521C245.484 180.788 162.1 181.521 162.1 181.521Z" fill="white"/>
<path d="M75.1 181.404C74.0295 144.155 193.118 91.8007 193.118 91.8007C193.118 91.8007 100.247 146.02 101.1 181.404C101.953 216.788 275.1 369.801 275.1 369.801C275.1 369.801 76.1705 218.653 75.1 181.404Z" fill="white"/>
<path d="M539.1 181.404C540.171 144.155 421.082 91.8007 421.082 91.8007C421.082 91.8007 513.953 146.02 513.1 181.404C512.247 216.788 339.1 369.801 339.1 369.801C339.1 369.801 538.03 218.653 539.1 181.404Z" fill="white"/>
<path d="M559.09 253.404C560.364 216.155 445.1 140.6 445.1 140.6C445.1 140.6 538.6 192.1 514.1 253.404C489.6 314.709 322.099 381.801 322.099 381.801C322.099 381.801 557.817 290.653 559.09 253.404Z" fill="white"/>
<path d="M56.1106 253.904C54.8368 216.655 170.101 141.1 170.101 141.1C170.101 141.1 76.6008 192.6 101.101 253.904C125.601 315.209 293.102 382.301 293.102 382.301C293.102 382.301 57.3844 291.153 56.1106 253.904Z" fill="white"/>
</g>
<defs>
<filter id="filter0_d_361_535" x="9.91821e-05" y="-12.0004" width="615.201" height="539.622" filterUnits="userSpaceOnUse" color-interpolation-filters="sRGB">
<feFlood flood-opacity="0" result="BackgroundImageFix"/>
<feColorMatrix in="SourceAlpha" type="matrix" values="0 0 0 0 0 0 0 0 0 0 0 0 0 0 0 0 0 0 127 0" result="hardAlpha"/>
<feOffset dy="4"/>
<feGaussianBlur stdDeviation="28.05"/>
<feComposite in2="hardAlpha" operator="out"/>
<feColorMatrix type="matrix" values="0 0 0 0 1 0 0 0 0 1 0 0 0 0 1 0 0 0 0.4 0"/>
<feBlend mode="normal" in2="BackgroundImageFix" result="effect1_dropShadow_361_535"/>
<feBlend mode="normal" in="SourceGraphic" in2="effect1_dropShadow_361_535" result="shape"/>
</filter>
</defs>
</svg>
