<svg width="503" height="528" viewBox="0 0 503 528" fill="none" xmlns="http://www.w3.org/2000/svg">
<g filter="url(#filter0_d_361_572)">
<path d="M106 181.521C106 181.521 187.542 185.946 216.422 156.521C245.301 127.096 247.421 52.0997 247.421 52.0997C247.421 52.0997 248.563 126.961 276.422 156.521C304.28 186.08 388.843 181.521 388.843 181.521C388.843 181.521 302.435 180.713 276.422 209.521C250.408 238.329 247.421 467.521 247.421 467.521C247.421 467.521 243.459 238.255 216.422 209.521C189.384 180.788 106 181.521 106 181.521Z" fill="white"/>
<path d="M111.595 208.907C246.566 264.552 408.308 375.431 130.025 402.586C83.8193 407.095 440.041 376.534 199.056 295.233C-41.9283 213.931 130.64 91.1874 130.64 91.1874C130.64 91.1874 -23.3752 153.262 111.595 208.907Z" fill="white"/>
<path d="M378.681 208.907C243.711 264.552 81.9687 375.431 360.252 402.586C406.458 407.095 50.236 376.534 291.221 295.233C532.205 213.931 359.637 91.1874 359.637 91.1874C359.637 91.1874 513.652 153.262 378.681 208.907Z" fill="white"/>
</g>
<defs>
<filter id="filter0_d_361_572" x="-56.1" y="-12.0004" width="615.201" height="539.622" filterUnits="userSpaceOnUse" color-interpolation-filters="sRGB">
<feFlood flood-opacity="0" result="BackgroundImageFix"/>
<feColorMatrix in="SourceAlpha" type="matrix" values="0 0 0 0 0 0 0 0 0 0 0 0 0 0 0 0 0 0 127 0" result="hardAlpha"/>
<feOffset dy="4"/>
<feGaussianBlur stdDeviation="28.05"/>
<feComposite in2="hardAlpha" operator="out"/>
<feColorMatrix type="matrix" values="0 0 0 0 1 0 0 0 0 1 0 0 0 0 1 0 0 0 0.4 0"/>
<feBlend mode="normal" in2="BackgroundImageFix" result="effect1_dropShadow_361_572"/>
<feBlend mode="normal" in="SourceGraphic" in2="effect1_dropShadow_361_572" result="shape"/>
</filter>
</defs>
</svg>
