<svg width="665" height="494" viewBox="0 0 665 494" fill="none" xmlns="http://www.w3.org/2000/svg">
<mask id="mask0_732_2890" style="mask-type:alpha" maskUnits="userSpaceOnUse" x="79" y="46" width="482" height="341">
<path d="M489.677 91.9983C579.945 153.663 588.655 263.331 484.491 335.265C365.749 417.265 183.671 398.697 108.197 301.393C45.0216 219.945 91.7805 121.388 193.967 74.5407C286.626 32.0615 411.595 38.6575 489.677 91.9983Z" fill="url(#paint0_radial_732_2890)"/>
</mask>
<g mask="url(#mask0_732_2890)">
<path d="M0.89605 163.055L256.561 492.668L255.467 493.423L0 163.465L0.89605 163.055Z" fill="#242323"/>
<path d="M92.0766 121.252L366.097 417.022L365.124 417.693L91.2539 121.629L92.0766 121.252Z" fill="#242323"/>
<path d="M133.98 102.041L415.288 383.051L414.367 383.687L133.19 102.403L133.98 102.041Z" fill="#242323"/>
<path d="M47.5632 141.66L313.057 453.651L312.026 454.363L46.7051 142.054L47.5632 141.66Z" fill="#242323"/>
<path d="M174.237 83.5859L461.884 350.874L461.011 351.476L173.478 83.934L174.237 83.5859Z" fill="#242323"/>
<path d="M251.754 48.0469L549.832 290.136L549.046 290.679L251.053 48.3686L251.754 48.0469Z" fill="#242323"/>
<path d="M287.553 31.6348L589.679 262.618L588.931 263.135L286.877 31.9446L287.553 31.6348Z" fill="#242323"/>
<path d="M322.541 15.5957L628.166 236.043L627.454 236.534L321.89 15.8942L322.541 15.5957Z" fill="#242323"/>
<path d="M355.784 0.355469L664.322 211.075L663.642 211.544L355.156 0.643409L355.784 0.355469Z" fill="#242323"/>
<path d="M213.848 65.4258L507.113 319.638L506.285 320.209L213.118 65.7602L213.848 65.4258Z" fill="#242323"/>
<path d="M355.004 0L355.505 0.342085L0.79879 162.93L0.408203 162.426L355.004 0Z" fill="#242323"/>
<path d="M411.101 38.3203L411.658 38.701L45.0749 220.009L44.6309 219.437L411.101 38.3203Z" fill="#242323"/>
<path d="M440.861 58.6504L441.45 59.0524L68.9548 250.796L68.4805 250.184L440.861 58.6504Z" fill="#242323"/>
<path d="M382.368 18.6934L382.896 19.054L22.2774 190.62L21.8613 190.084L382.368 18.6934Z" fill="#242323"/>
<path d="M472.31 80.1348L472.932 80.5599L94.4902 283.718L93.9824 283.064L472.31 80.1348Z" fill="#242323"/>
<path d="M542.461 128.057L543.162 128.536L152.596 358.627L152.008 357.869L542.461 128.057Z" fill="#242323"/>
<path d="M580.04 153.729L580.786 154.238L184.391 399.618L183.756 398.8L580.04 153.729Z" fill="#242323"/>
<path d="M620.628 181.457L621.423 182L219.268 444.587L218.58 443.7L620.628 181.457Z" fill="#242323"/>
<path d="M663.306 210.611L664.155 211.191L256.561 492.666L255.814 491.703L663.306 210.611Z" fill="#242323"/>
<path d="M506.42 103.436L507.08 103.887L122.544 319.883L121.998 319.179L506.42 103.436Z" fill="#242323"/>
<mask id="mask1_732_2890" style="mask-type:alpha" maskUnits="userSpaceOnUse" x="347" y="196" width="131" height="93">
<path d="M347.891 245.26C347.34 244.749 347.46 244.001 348.157 243.591L349.418 242.848L378.094 269.394L376.818 270.177C376.112 270.61 375.069 270.523 374.489 269.984L347.891 245.26Z" fill="black"/>
<path d="M358.203 243.715C357.647 243.205 357.759 242.459 358.452 242.05L359.704 241.309L377.287 257.397C377.862 257.923 377.763 258.692 377.066 259.116C376.368 259.539 375.336 259.455 374.762 258.928L358.203 243.715Z" fill="black"/>
<path d="M368.66 247.226C367.926 246.849 366.919 246.982 366.412 247.524L365.492 248.506L390.437 261.357C391.192 261.746 392.213 261.61 392.714 261.052C393.215 260.496 393.008 259.73 392.253 259.342L368.66 247.226Z" fill="black"/>
<path d="M376.53 244.333C375.794 243.957 374.791 244.09 374.289 244.628C373.786 245.168 373.976 245.911 374.713 246.287L396.172 257.259C396.928 257.645 397.944 257.51 398.44 256.956C398.936 256.404 398.726 255.644 397.971 255.26L376.53 244.333Z" fill="black"/>
<path d="M387.322 239.805C388.003 239.397 388.092 238.656 387.522 238.15C386.954 237.645 385.942 237.566 385.262 237.973L374.858 244.197C374.17 244.609 374.07 245.358 374.635 245.871C375.202 246.385 376.22 246.466 376.909 246.053L387.322 239.805Z" fill="black"/>
<path d="M393.968 245.718C394.65 245.305 394.735 244.555 394.159 244.043C393.583 243.532 392.564 243.451 391.882 243.862L384.693 248.203C384.005 248.618 383.912 249.374 384.486 249.892C385.06 250.409 386.084 250.492 386.773 250.075L393.968 245.718Z" fill="black"/>
<path d="M405.272 212.873C405.928 212.485 406.002 211.784 405.438 211.305C404.875 210.828 403.888 210.754 403.232 211.14L361.436 235.767C360.749 236.172 360.64 236.908 361.193 237.412C361.747 237.916 362.754 237.995 363.442 237.589L405.272 212.873Z" fill="black"/>
<path d="M407.368 256.891C408.053 256.468 408.129 255.701 407.538 255.177C406.948 254.653 405.915 254.57 405.231 254.991L378.293 271.546C377.587 271.98 377.487 272.771 378.07 273.314C378.654 273.857 379.702 273.944 380.408 273.508L407.368 256.891Z" fill="black"/>
<path d="M460.34 224.241C460.985 223.843 461.019 223.123 460.418 222.632C459.817 222.141 458.809 222.064 458.164 222.46L432.819 238.037C432.155 238.445 432.099 239.187 432.694 239.695C433.29 240.203 434.313 240.283 434.978 239.874L460.34 224.241Z" fill="black"/>
<path d="M477.154 237.998C477.802 237.589 477.825 236.848 477.205 236.342C476.587 235.837 475.561 235.757 474.913 236.164L449.436 252.18C448.768 252.6 448.723 253.364 449.337 253.888C449.951 254.411 450.991 254.495 451.659 254.073L477.154 237.998Z" fill="black"/>
<path d="M445.716 257.4C446.625 257.474 447.395 256.988 447.435 256.317C447.475 255.646 446.772 255.044 445.865 254.971L410.655 252.148C409.756 252.076 408.975 252.556 408.91 253.221C408.844 253.887 409.522 254.486 410.423 254.559L445.716 257.4Z" fill="black"/>
<path d="M399.999 273.884C400.698 273.449 400.781 272.655 400.184 272.113C399.588 271.572 398.54 271.485 397.841 271.919L386.377 279.044C385.669 279.484 385.574 280.288 386.167 280.838C386.76 281.39 387.816 281.479 388.525 281.037L399.999 273.884Z" fill="black"/>
<path d="M415.07 264.489C415.758 264.061 415.828 263.281 415.228 262.749C414.629 262.217 413.587 262.132 412.901 262.559L401.63 269.564C400.933 269.997 400.851 270.786 401.447 271.327C402.044 271.868 403.093 271.955 403.79 271.521L415.07 264.489Z" fill="black"/>
<path d="M400.799 270.739C401.395 271.279 402.444 271.366 403.141 270.932C403.837 270.499 403.917 269.71 403.32 269.171L399.02 265.284C398.429 264.75 397.387 264.665 396.693 265.093C395.998 265.522 395.912 266.304 396.503 266.84L400.799 270.739Z" fill="black"/>
<path d="M425.781 268.717C426.391 269.256 427.442 269.343 428.128 268.91C428.814 268.478 428.875 267.691 428.265 267.154L411.741 252.591C411.149 252.07 410.119 251.987 409.438 252.406C408.756 252.825 408.681 253.588 409.271 254.11L425.781 268.717Z" fill="black"/>
<path d="M444.482 256.943C445.096 257.47 446.138 257.554 446.81 257.131C447.481 256.707 447.527 255.938 446.913 255.413L430.284 241.178C429.689 240.668 428.667 240.588 428 240.998C427.332 241.408 427.272 242.155 427.866 242.666L444.482 256.943Z" fill="black"/>
<path d="M449.095 254.04C449.71 254.564 450.75 254.647 451.418 254.226C452.086 253.805 452.128 253.04 451.514 252.517L434.859 238.363C434.263 237.856 433.243 237.777 432.579 238.184C431.915 238.593 431.859 239.335 432.454 239.843L449.095 254.04Z" fill="black"/>
<path d="M412.088 263.718C412.686 264.252 413.73 264.337 414.418 263.909C415.105 263.481 415.176 262.702 414.577 262.17L410.259 258.336C409.665 257.809 408.629 257.725 407.943 258.149C407.257 258.572 407.18 259.344 407.773 259.873L412.088 263.718Z" fill="black"/>
<path d="M415.272 275.332C415.88 275.878 416.936 275.966 417.63 275.528C418.324 275.09 418.394 274.294 417.786 273.749L409.492 266.319C408.894 265.783 407.85 265.697 407.158 266.127C406.466 266.557 406.389 267.341 406.986 267.878L415.272 275.332Z" fill="black"/>
<path d="M386.165 280.838C386.758 281.39 387.815 281.479 388.523 281.037C389.232 280.595 389.324 279.791 388.73 279.242L380.626 271.739C380.042 271.199 378.997 271.112 378.292 271.546C377.586 271.979 377.486 272.771 378.069 273.313L386.165 280.838Z" fill="black"/>
<path d="M405.909 281.227C406.514 281.78 407.575 281.869 408.277 281.426C408.978 280.984 409.055 280.179 408.449 279.628L400.183 272.113C399.588 271.572 398.539 271.485 397.84 271.919C397.141 272.354 397.056 273.146 397.651 273.689L405.909 281.227Z" fill="black"/>
<path d="M408.278 281.427C408.98 280.984 409.056 280.179 408.451 279.629C407.846 279.079 406.788 278.99 406.087 279.431L394.587 286.66C393.877 287.107 393.788 287.922 394.389 288.481C394.992 289.041 396.058 289.132 396.769 288.684L408.278 281.427Z" fill="black"/>
<path d="M397.577 221.876L396.554 220.992C395.99 220.505 394.995 220.429 394.33 220.822L383.179 227.42C382.505 227.819 382.413 228.543 382.974 229.039L383.991 229.937L397.577 221.876Z" fill="black"/>
<path d="M409.584 232.251L408.539 231.348C407.962 230.849 406.954 230.771 406.286 231.173L395.084 237.911C394.407 238.318 394.323 239.059 394.896 239.565L395.937 240.484L409.584 232.251Z" fill="black"/>
<path d="M419.942 241.203L421.01 242.126C421.6 242.637 421.536 243.385 420.864 243.797L409.603 250.708C408.922 251.125 407.893 251.043 407.305 250.524L406.242 249.585L419.942 241.203Z" fill="black"/>
<path d="M423.437 240.64C424.028 241.149 425.05 241.229 425.718 240.819C426.386 240.41 426.447 239.666 425.855 239.158L399.11 216.22C398.547 215.737 397.556 215.663 396.895 216.052C396.234 216.442 396.152 217.151 396.715 217.635L423.437 240.64Z" fill="black"/>
<path d="M435.461 233.271C436.055 233.773 437.072 233.851 437.731 233.447C438.39 233.043 438.441 232.309 437.847 231.809L410.17 208.514C409.606 208.039 408.621 207.966 407.969 208.35C407.316 208.734 407.244 209.432 407.807 209.908L435.461 233.271Z" fill="black"/>
<path d="M435.12 232.276C435.393 232.898 436.3 233.268 437.143 233.103C437.987 232.938 438.447 232.3 438.172 231.679L424.525 200.907C424.267 200.326 423.397 199.981 422.58 200.137C421.763 200.293 421.309 200.89 421.564 201.472L435.12 232.276Z" fill="black"/>
<path d="M440.238 229.662C440.514 230.28 441.42 230.648 442.262 230.484C443.102 230.319 443.558 229.685 443.28 229.067L429.256 197.902C428.996 197.324 428.126 196.982 427.312 197.137C426.499 197.292 426.048 197.885 426.306 198.463L440.238 229.662Z" fill="black"/>
<path d="M439.243 208.956C439.824 209.432 440.816 209.506 441.458 209.121C442.099 208.735 442.146 208.037 441.565 207.562L429.077 197.36C428.509 196.896 427.532 196.824 426.894 197.2C426.255 197.576 426.197 198.259 426.764 198.724L439.243 208.956Z" fill="black"/>
<path d="M446.015 214.507C446.658 214.117 446.702 213.412 446.115 212.931C445.528 212.451 444.532 212.376 443.889 212.764L436.171 217.426C435.522 217.818 435.469 218.53 436.054 219.016C436.639 219.503 437.641 219.579 438.291 219.185L446.015 214.507Z" fill="black"/>
<path d="M457.081 221.573C457.725 221.177 457.762 220.461 457.164 219.973C456.567 219.485 455.562 219.409 454.918 219.803L441.049 228.289C440.394 228.69 440.344 229.418 440.939 229.915C441.533 230.414 442.547 230.492 443.202 230.09L457.081 221.573Z" fill="black"/>
<path d="M429.95 236.648C430.543 237.153 431.562 237.233 432.225 236.825C432.888 236.419 432.944 235.681 432.351 235.177L412.536 218.355C411.965 217.87 410.969 217.795 410.311 218.186C409.653 218.578 409.581 219.29 410.152 219.777L429.95 236.648Z" fill="black"/>
<path d="M405.416 215.74C404.85 215.258 404.925 214.552 405.582 214.163C406.239 213.774 407.23 213.849 407.796 214.33L409.646 215.9C410.215 216.383 410.143 217.092 409.486 217.483C408.828 217.875 407.833 217.799 407.264 217.315L405.416 215.74Z" fill="black"/>
<path d="M407.091 250.333C407.679 250.852 408.708 250.935 409.388 250.517C410.068 250.1 410.142 249.342 409.554 248.825L386.023 228.127C385.461 227.633 384.46 227.555 383.787 227.954C383.113 228.353 383.021 229.079 383.583 229.575L407.091 250.333Z" fill="black"/>
<path d="M418.364 243.429C418.954 243.941 419.978 244.022 420.65 243.609C421.321 243.198 421.386 242.45 420.795 241.939L397.167 221.52C396.602 221.032 395.606 220.956 394.941 221.35C394.275 221.744 394.192 222.46 394.756 222.949L418.364 243.429Z" fill="black"/>
<path d="M403.671 254.348C404.356 253.928 404.434 253.164 403.847 252.643C403.26 252.122 402.231 252.04 401.547 252.458L396.576 255.5C395.888 255.921 395.803 256.688 396.388 257.214C396.973 257.74 398.007 257.824 398.696 257.401L403.671 254.348Z" fill="black"/>
<path d="M379.022 229.879C379.699 229.479 380.701 229.556 381.261 230.053L382.278 230.953L360.715 243.748C360.022 244.159 359.009 244.078 358.453 243.568C357.897 243.058 358.009 242.312 358.702 241.903L379.022 229.879Z" fill="black"/>
<path d="M385.918 236.359C386.596 235.954 386.686 235.218 386.119 234.716L385.095 233.809L363.499 246.677C362.805 247.091 362.696 247.844 363.257 248.359C363.818 248.874 364.837 248.956 365.532 248.541L385.918 236.359Z" fill="black"/>
<path d="M386.364 234.571C386.931 235.072 386.841 235.808 386.163 236.213L384.933 236.948L379.419 232.047C378.859 231.548 378.954 230.819 379.631 230.418C380.307 230.018 381.31 230.095 381.871 230.592L386.364 234.571Z" fill="black"/>
<path d="M384.406 263.912C384.988 264.444 384.894 265.224 384.195 265.653L382.927 266.431L377.47 261.417C376.893 260.887 376.993 260.114 377.691 259.69C378.388 259.266 379.421 259.35 379.997 259.878L384.406 263.912Z" fill="black"/>
<path d="M348.914 243.145L355.572 239.222C356.194 238.856 357.1 238.928 357.598 239.383C358.095 239.838 357.995 240.505 357.373 240.873L350.71 244.809L348.914 243.145Z" fill="black"/>
<path d="M374.928 268.423L381.286 264.533L383.182 266.274L376.819 270.177L374.928 268.423Z" fill="black"/>
</mask>
<g mask="url(#mask1_732_2890)">
<path d="M346.62 244.079L427.995 196.15L478.916 237.738L396.053 290.028L346.62 244.079Z" fill="#0C0C0C"/>
</g>
<path d="M179.13 163.715C180.156 164.804 181.644 164.965 183.28 164.171C184.891 163.388 185.231 162.341 184.202 161.258L178.878 155.658L181.47 154.412L186.804 159.997C188.972 162.267 188.352 164.653 185.193 166.192C182.002 167.747 178.66 167.281 176.508 164.986L174.72 163.078C173.59 161.873 171.872 161.731 169.905 162.68L165.805 164.655L164.066 162.777L168.161 160.809C171.804 159.058 175.077 159.413 177.338 161.813L179.13 163.715Z" fill="#0C0C0C"/>
<path d="M189.213 173.736C190.264 174.851 191.684 175.059 193.2 174.312C194.691 173.577 194.936 172.549 193.882 171.44L188.689 165.978L191.299 164.704L196.502 170.151C198.814 172.572 198.34 174.808 195.159 176.381C192.32 177.785 189.61 177.581 187.404 175.816L182.728 182.938L180.54 180.574L185.193 173.562L185 173.356C183.842 172.123 182.101 171.977 180.12 172.946L175.549 175.182L173.768 173.258L178.333 171.031C182.001 169.241 185.319 169.606 187.636 172.063L189.213 173.736Z" fill="#0C0C0C"/>
<path d="M202.378 186.316L199.718 187.649L195.765 183.443C194.578 182.181 192.814 182.03 190.821 183.02L188.001 184.421L194.039 190.913L191.355 192.258L183.505 183.777L188.546 181.28C192.526 179.309 196.043 179.607 198.418 182.121L202.378 186.316ZM201.162 175.031L209.113 183.356L206.469 184.681L198.533 176.333L201.162 175.031Z" fill="#0C0C0C"/>
<path d="M208.049 188.064C207.164 188.509 206.906 189.101 207.098 190.794L207.634 195.336C208.013 198.586 207.103 200.015 205.061 201.055C202.699 202.257 200.208 201.823 198.317 199.779L192.017 192.973L194.701 191.626L201.108 198.515C201.771 199.227 202.441 199.379 203.137 199.026C203.832 198.673 204.243 198.122 203.985 195.8L203.476 191.229C203.207 188.717 204.044 187.146 206.167 186.08C208.551 184.883 210.954 185.283 212.886 187.306L218.613 193.302L215.951 194.656L209.965 188.359C209.52 187.89 208.779 187.696 208.049 188.064Z" fill="#0C0C0C"/>
<path d="M218.142 198.701C217.25 199.157 216.996 199.762 217.209 201.495L217.801 206.145C218.221 209.472 217.315 210.936 215.258 211.999C212.88 213.228 210.353 212.782 208.415 210.689L201.962 203.717L204.666 202.339L211.228 209.396C211.907 210.125 212.587 210.282 213.288 209.92C213.988 209.56 214.398 208.996 214.111 206.618L213.546 201.938C213.246 199.367 214.076 197.759 216.215 196.67C218.615 195.446 221.053 195.857 223.031 197.929L228.896 204.069L226.216 205.454L220.085 199.004C219.629 198.524 218.877 198.325 218.142 198.701Z" fill="#0C0C0C"/>
<path d="M240.194 220.157C238.834 218.726 237.132 218.573 234.602 219.904L222.725 226.148L220.73 223.994L232.592 217.776C234.081 216.995 235.469 216.607 236.772 216.558L232.294 211.848L234.985 210.445L244.79 220.711L242.082 222.144L240.194 220.157Z" fill="#0C0C0C"/>
<path d="M232.404 237.2C228.983 233.502 230.539 228.837 236.104 225.893C241.639 222.964 247.937 223.436 251.4 227.06C254.89 230.712 253.445 235.4 247.868 238.403C242.26 241.423 235.851 240.927 232.404 237.2ZM235.166 235.725C237.323 238.047 241.648 238.173 245.638 236.032C249.612 233.899 250.858 230.798 248.682 228.51C246.517 226.234 242.241 226.113 238.286 228.213C234.315 230.321 233.019 233.416 235.166 235.725Z" fill="#0C0C0C"/>
<path d="M152.315 172.159L132.911 181.52L139.718 189.339L136.237 191.037L127.305 180.711L150.13 169.737L152.315 172.159Z" fill="#0C0C0C"/>
<path d="M148.45 189.788C147.653 189.585 147.68 189.288 148.573 189.083L164.445 185.603L166.71 188.114L148.229 204.9L145.834 202.131L150.815 197.636L148.973 195.531C147.299 193.617 145.388 192.997 141.915 193.767L139.129 194.38L136.789 191.675L139.185 191.149C146.009 189.642 149.642 190.625 152.998 194.436L153.592 195.111L159.3 189.948L152.06 191.537C151.277 190.884 149.884 190.196 148.45 189.788Z" fill="#0C0C0C"/>
<path d="M166.799 210.975L180.912 203.856L183.272 206.472L169.603 213.391C162.892 216.789 157.353 216.233 153.785 212.105C150.217 207.976 151.732 203.957 158.384 200.648L171.936 193.907L174.244 196.465L160.202 203.475C156.084 205.531 155.109 207.792 157.302 210.313C159.507 212.848 162.659 213.063 166.799 210.975Z" fill="#0C0C0C"/>
<path d="M179.856 210.951C183.52 209.091 186.454 209.249 188.212 211.195C189.839 212.997 189.197 215.163 186.096 217.645L175.85 225.857C174.254 227.131 174.163 227.915 175.138 229.034L194.588 219.015L196.679 221.332L173.019 233.558L170.965 231.184C168.989 228.9 169.431 226.183 172.424 223.805L183.233 215.204C184.869 213.897 185.011 213.297 184.636 212.879C184.278 212.48 183.465 212.425 181.89 213.226L163.522 222.579L161.515 220.26L179.856 210.951Z" fill="#0C0C0C"/>
<path d="M190.128 247.696C186.455 247.516 183.201 246.14 181.04 243.64C176.944 238.901 179.233 232.938 186.483 229.182C193.682 225.453 201.63 226.056 205.8 230.674C207.713 232.793 208.321 235.201 207.73 237.545L203.1 237.243C203.763 235.6 203.531 233.935 202.266 232.525C199.659 229.62 194.247 229.465 189.098 232.143C183.924 234.834 182.074 238.791 184.648 241.751C186.038 243.349 188.255 244.135 190.854 244.101L190.128 247.696Z" fill="#0C0C0C"/>
<path d="M188.106 250.999L212.028 238.345L214.571 241.164L204.006 246.775C205.478 247.045 206.695 247.722 207.805 248.972L212.568 254.338L221.924 249.314L224.527 252.2L200.398 265.208L197.837 262.248L208.958 256.277L204.188 250.87C202.593 249.061 200.278 248.785 197.615 250.169L190.607 253.89L188.106 250.999Z" fill="#0C0C0C"/>
</g>
<defs>
<radialGradient id="paint0_radial_732_2890" cx="0" cy="0" r="1" gradientUnits="userSpaceOnUse" gradientTransform="translate(319.758 216.884) rotate(89.934) scale(210.116 418.558)">
<stop/>
<stop offset="1" stop-opacity="0"/>
</radialGradient>
</defs>
</svg>
