<svg width="503" height="558" viewBox="0 0 503 558" fill="none" xmlns="http://www.w3.org/2000/svg">
<g filter="url(#filter0_d_361_580)">
<path d="M186.416 348.604C186.416 348.604 224.11 350.65 237.459 337.048C250.809 323.446 251.789 288.778 251.789 288.778C251.789 288.778 252.317 323.384 265.195 337.048C278.073 350.712 317.162 348.604 317.162 348.604C317.162 348.604 277.22 348.231 265.195 361.548C253.17 374.864 251.789 480.81 251.789 480.81C251.789 480.81 249.958 374.83 237.459 361.548C224.961 348.265 186.416 348.604 186.416 348.604Z" fill="white"/>
<path d="M168.079 280.508C168.079 280.508 216.672 283.145 233.882 265.61C251.092 248.075 252.355 203.383 252.355 203.383C252.355 203.383 253.036 247.994 269.637 265.61C286.239 283.225 336.632 280.508 336.632 280.508C336.632 280.508 285.14 280.027 269.637 297.194C254.135 314.361 252.355 450.942 252.355 450.942C252.355 450.942 249.994 314.317 233.882 297.194C217.77 280.071 168.079 280.508 168.079 280.508Z" fill="white"/>
<path d="M100.521 190.888C100.521 190.888 187.964 195.633 218.934 164.078C249.904 132.524 252.178 52.0999 252.178 52.0999C252.178 52.0999 253.402 132.38 283.277 164.078C313.151 195.777 403.834 190.888 403.834 190.888C403.834 190.888 311.173 190.022 283.277 220.915C255.38 251.808 252.178 497.587 252.178 497.587C252.178 497.587 247.929 251.728 218.934 220.915C189.94 190.102 100.521 190.888 100.521 190.888Z" fill="white"/>
</g>
<defs>
<filter id="filter0_d_361_580" x="-56.1" y="-0.000389099" width="615.201" height="557.687" filterUnits="userSpaceOnUse" color-interpolation-filters="sRGB">
<feFlood flood-opacity="0" result="BackgroundImageFix"/>
<feColorMatrix in="SourceAlpha" type="matrix" values="0 0 0 0 0 0 0 0 0 0 0 0 0 0 0 0 0 0 127 0" result="hardAlpha"/>
<feOffset dy="4"/>
<feGaussianBlur stdDeviation="28.05"/>
<feComposite in2="hardAlpha" operator="out"/>
<feColorMatrix type="matrix" values="0 0 0 0 1 0 0 0 0 1 0 0 0 0 1 0 0 0 0.4 0"/>
<feBlend mode="normal" in2="BackgroundImageFix" result="effect1_dropShadow_361_580"/>
<feBlend mode="normal" in="SourceGraphic" in2="effect1_dropShadow_361_580" result="shape"/>
</filter>
</defs>
</svg>
