<svg width="503" height="547" viewBox="0 0 503 547" fill="none" xmlns="http://www.w3.org/2000/svg">
<g filter="url(#filter0_d_361_562)">
<path d="M106 181.521C106 181.521 187.542 185.946 216.422 156.521C245.301 127.096 247.421 52.0997 247.421 52.0997C247.421 52.0997 248.563 126.961 276.422 156.521C304.28 186.08 388.843 181.521 388.843 181.521C388.843 181.521 302.435 180.713 276.422 209.521C250.408 238.329 247.421 467.521 247.421 467.521C247.421 467.521 243.459 238.255 216.422 209.521C189.384 180.788 106 181.521 106 181.521Z" fill="white"/>
<path d="M287 211.099C310.846 186.229 388.5 190.1 388.5 190.1C388.5 190.1 313 233.1 291 226.1C269 219.1 254.494 485.611 254.494 485.611C254.494 485.611 263.154 235.97 287 211.099Z" fill="white"/>
<path d="M294.898 236.054C317.832 222.026 375.655 240.374 375.655 240.374C375.655 240.374 310.145 257.819 294.936 248.167C279.727 238.514 279.076 250.996 277.646 251.831C276.202 252.673 271.964 250.082 294.898 236.054Z" fill="white"/>
<path d="M328.383 167.206C358.852 172.12 412.283 127.452 412.283 127.452C412.283 127.452 335.102 137.447 323.149 154.323C311.197 171.198 307.459 161.384 305.577 161.121C303.676 160.855 297.914 162.291 328.383 167.206Z" fill="white"/>
<path d="M163.898 167.206C133.429 172.12 79.998 127.452 79.998 127.452C79.998 127.452 157.18 137.447 169.132 154.323C181.084 171.198 184.822 161.384 186.705 161.121C188.605 160.855 194.367 162.291 163.898 167.206Z" fill="white"/>
<path d="M292.881 251.984C312.425 250.495 343.864 281.608 343.864 281.608C343.864 281.608 295.549 271.175 288.882 259.858C282.216 248.542 277.648 256.428 276.443 256.494C275.226 256.561 273.336 253.472 292.881 251.984Z" fill="white"/>
<path d="M207.149 211.417C183.303 186.546 105.649 190.417 105.649 190.417C105.649 190.417 181.149 233.417 203.149 226.417C225.149 219.417 239.655 485.929 239.655 485.929C239.655 485.929 230.995 236.287 207.149 211.417Z" fill="white"/>
<path d="M199.251 236.371C176.317 222.343 118.494 240.691 118.494 240.691C118.494 240.691 184.004 258.137 199.213 248.484C214.422 238.832 215.073 251.314 216.503 252.148C217.947 252.99 222.185 250.4 199.251 236.371Z" fill="white"/>
<path d="M201.268 252.301C181.723 250.812 150.285 281.926 150.285 281.926C150.285 281.926 198.6 271.492 205.266 260.176C211.932 248.859 216.5 256.745 217.706 256.812C218.923 256.879 220.813 253.79 201.268 252.301Z" fill="white"/>
</g>
<defs>
<filter id="filter0_d_361_562" x="-56.1" y="-12.0004" width="615.201" height="558.029" filterUnits="userSpaceOnUse" color-interpolation-filters="sRGB">
<feFlood flood-opacity="0" result="BackgroundImageFix"/>
<feColorMatrix in="SourceAlpha" type="matrix" values="0 0 0 0 0 0 0 0 0 0 0 0 0 0 0 0 0 0 127 0" result="hardAlpha"/>
<feOffset dy="4"/>
<feGaussianBlur stdDeviation="28.05"/>
<feComposite in2="hardAlpha" operator="out"/>
<feColorMatrix type="matrix" values="0 0 0 0 1 0 0 0 0 1 0 0 0 0 1 0 0 0 0.4 0"/>
<feBlend mode="normal" in2="BackgroundImageFix" result="effect1_dropShadow_361_562"/>
<feBlend mode="normal" in="SourceGraphic" in2="effect1_dropShadow_361_562" result="shape"/>
</filter>
</defs>
</svg>
