<svg width="540" height="731" viewBox="0 0 540 731" fill="none" xmlns="http://www.w3.org/2000/svg">
<g filter="url(#filter0_d_361_584)">
<path d="M129.193 249.432C129.193 249.432 210.735 253.857 239.615 224.432C268.495 195.007 270.615 120.011 270.615 120.011C270.615 120.011 271.756 194.873 299.615 224.432C327.473 253.991 412.036 249.432 412.036 249.432C412.036 249.432 325.629 248.625 299.615 277.433C273.601 306.241 270.615 535.433 270.615 535.433C270.615 535.433 266.653 306.166 239.615 277.433C212.577 248.699 129.193 249.432 129.193 249.432Z" fill="white"/>
<g filter="url(#filter1_d_361_584)">
<path d="M269.533 79.5814C270.315 90.3749 271.778 105.213 274.497 121.387C277.216 137.558 281.194 155.087 287.017 171.253C292.835 187.41 300.518 202.271 310.679 213.052C320.877 223.873 336.197 231.51 353.325 236.903C370.47 242.301 389.524 245.48 407.29 247.323C415.978 248.225 424.364 248.807 432.077 249.173C424.055 249.837 415.308 250.743 406.261 251.98C388.333 254.432 369.2 258.187 352.185 263.939C335.19 269.685 320.199 277.459 310.665 288.017C305.815 293.388 301.601 303.282 297.895 316.287C294.177 329.338 290.928 345.679 288.09 364.086C282.412 400.903 278.361 446.08 275.481 489.938C272.601 533.801 270.893 576.364 269.904 607.96C269.776 612.079 269.659 616.012 269.554 619.736C269.43 616.006 269.295 612.066 269.146 607.94C268.002 576.335 266.072 533.762 262.925 489.893C259.777 446.028 255.411 400.845 249.394 364.032C246.386 345.627 242.961 329.29 239.062 316.245C235.176 303.245 230.775 293.359 225.735 288.003C215.839 277.486 200.856 269.727 184.06 263.986C167.247 258.238 148.52 254.48 131.043 252.021C121.995 250.748 113.275 249.824 105.319 249.151C112.968 248.779 121.327 248.182 130.015 247.251C147.33 245.395 165.978 242.209 182.921 236.82C199.85 231.436 215.161 223.825 225.72 213.067C236.251 202.337 244.302 187.501 250.461 171.353C256.624 155.195 260.918 137.659 263.906 121.475C266.894 105.288 268.578 90.4319 269.516 79.6229C269.52 79.5809 269.522 79.539 269.526 79.4972C269.528 79.5252 269.531 79.5533 269.533 79.5814Z" stroke="white" stroke-width="2" shape-rendering="crispEdges"/>
</g>
<circle cx="269.193" cy="255.011" r="96" stroke="white" stroke-width="2"/>
</g>
<defs>
<filter id="filter0_d_361_584" x="-32.9066" y="9.9" width="615.201" height="710.408" filterUnits="userSpaceOnUse" color-interpolation-filters="sRGB">
<feFlood flood-opacity="0" result="BackgroundImageFix"/>
<feColorMatrix in="SourceAlpha" type="matrix" values="0 0 0 0 0 0 0 0 0 0 0 0 0 0 0 0 0 0 127 0" result="hardAlpha"/>
<feOffset dy="4"/>
<feGaussianBlur stdDeviation="28.05"/>
<feComposite in2="hardAlpha" operator="out"/>
<feColorMatrix type="matrix" values="0 0 0 0 1 0 0 0 0 1 0 0 0 0 1 0 0 0 0.4 0"/>
<feBlend mode="normal" in2="BackgroundImageFix" result="effect1_dropShadow_361_584"/>
<feBlend mode="normal" in="SourceGraphic" in2="effect1_dropShadow_361_584" result="shape"/>
</filter>
<filter id="filter1_d_361_584" x="0" y="0" width="539.293" height="730.208" filterUnits="userSpaceOnUse" color-interpolation-filters="sRGB">
<feFlood flood-opacity="0" result="BackgroundImageFix"/>
<feColorMatrix in="SourceAlpha" type="matrix" values="0 0 0 0 0 0 0 0 0 0 0 0 0 0 0 0 0 0 127 0" result="hardAlpha"/>
<feOffset dy="4"/>
<feGaussianBlur stdDeviation="33"/>
<feComposite in2="hardAlpha" operator="out"/>
<feColorMatrix type="matrix" values="0 0 0 0 1 0 0 0 0 1 0 0 0 0 1 0 0 0 0.25 0"/>
<feBlend mode="normal" in2="BackgroundImageFix" result="effect1_dropShadow_361_584"/>
<feBlend mode="normal" in="SourceGraphic" in2="effect1_dropShadow_361_584" result="shape"/>
</filter>
</defs>
</svg>
