<svg width="103" height="284" viewBox="0 0 103 284" fill="none" xmlns="http://www.w3.org/2000/svg">
<path d="M98.4441 216.607C98.0441 213.807 87.6108 201.441 82.4442 195.607V102.607C82.4442 59.6074 62.2812 32.6074 52.9441 23.1074C42.7775 33.4408 22.7441 62.6074 21.9441 102.607C21.1441 142.607 21.6108 181.274 21.9441 195.607C16.7774 201.107 6.14383 213.007 4.94383 216.607C3.74383 220.207 4.44383 262.441 4.94383 283.107H7.94336C11.11 271.941 18.6434 248.907 23.4434 246.107H24.9434V253.607L33.9434 261.107V263.107L31.9434 266.607V274.107C33.277 277.107 39.3441 283.107 52.9441 283.107C64.5441 283.507 71.4442 277.274 73.4442 274.107V266.607L69.9442 263.107V261.107L80.4442 253.607V248.107C80.9442 247.941 82.0442 247.707 82.4442 248.107C85.6441 252.107 94.4441 273.107 98.4441 283.107H100.444C99.9441 262.107 98.8441 219.407 98.4441 216.607Z" fill="url(#paint0_linear_732_358)"/>
<path d="M76.1582 77.2503L76.2489 77.3577C76.5354 77.6969 76.6685 78.0371 76.6481 78.3781C76.6285 78.7202 76.4825 79.0064 76.2099 79.2366C75.9394 79.4651 75.6728 79.5693 75.4103 79.549C75.1467 79.5296 74.9176 79.4248 74.723 79.2347L74.7089 79.2211L74.9685 79.0018L74.9826 79.0154C75.1056 79.1348 75.2585 79.2059 75.4414 79.2287C75.6243 79.2515 75.8162 79.178 76.0171 79.0083C76.218 78.8386 76.3201 78.6245 76.3234 78.3661C76.3257 78.1085 76.2138 77.8459 75.9878 77.5783L75.8971 77.4709C75.6711 77.2033 75.4309 77.0491 75.1765 77.0083C74.9212 76.9683 74.693 77.0332 74.4921 77.2029C74.2912 77.3726 74.1866 77.5496 74.1785 77.7337C74.1704 77.9178 74.2149 78.0804 74.3121 78.2217L74.3232 78.2379L74.0636 78.4572L74.0525 78.441C73.8976 78.2173 73.8326 77.9739 73.8575 77.7108C73.8815 77.4486 74.0287 77.2032 74.2993 76.9746C74.5718 76.7444 74.8779 76.6477 75.2176 76.6847C75.5581 76.7226 75.8717 76.9111 76.1582 77.2503ZM71.688 79.2027L73.2366 81.5878L72.4274 82.1132C72.1587 82.2876 71.911 82.3569 71.6843 82.3209C71.4572 82.2867 71.2749 82.1637 71.1373 81.9518C70.999 81.7389 70.9594 81.5201 71.0185 81.2954C71.0772 81.0726 71.2408 80.874 71.5095 80.6995L72.0353 80.3581L71.4046 79.3867L71.688 79.2027ZM72.1917 80.5989L71.6658 80.9403C71.4605 81.0736 71.3469 81.2118 71.3249 81.355C71.303 81.4981 71.3349 81.6357 71.4207 81.7678C71.5058 81.8989 71.6174 81.9824 71.7557 82.0184C71.8939 82.0544 72.0657 82.0057 72.271 81.8724L72.7969 81.531L72.1917 80.5989ZM70.2464 80.1387L71.5919 80.83L71.3226 81.0537L69.9221 80.3493L70.2464 80.1387ZM68.0497 81.5178L69.3027 84.0706L67.6335 84.8899L67.5062 84.6304L68.872 83.96L68.4563 83.1132L67.2641 83.6984L67.1367 83.4389L68.329 82.8537L67.8737 81.9262L66.4886 82.606L66.3613 82.3465L68.0497 81.5178ZM64.7155 83.9642C64.7707 84.1256 64.7683 84.2798 64.7084 84.4268C64.6478 84.5755 64.5538 84.7012 64.4265 84.8038L64.429 84.8112C64.5584 84.8234 64.6849 84.8696 64.8086 84.9499C64.9311 85.0305 65.0178 85.1453 65.0687 85.2944C65.1441 85.515 65.1209 85.7211 64.9992 85.9126C64.8774 86.1041 64.6983 86.2403 64.4617 86.3211C64.2251 86.4019 64.0005 86.403 63.7879 86.3242C63.5744 86.2471 63.4303 86.0989 63.3553 85.8796C63.3044 85.7305 63.3027 85.5866 63.3503 85.4479C63.3979 85.3092 63.4697 85.1952 63.5658 85.106L63.5633 85.0986C63.4003 85.1006 63.2495 85.0599 63.1109 84.9766C62.9715 84.8948 62.8743 84.7732 62.8192 84.6118C62.7363 84.3691 62.7641 84.1484 62.9026 83.9497C63.0416 83.7523 63.2423 83.6087 63.5047 83.5191C63.7672 83.4295 64.0138 83.4202 64.2445 83.4914C64.4756 83.5638 64.6326 83.7214 64.7155 83.9642ZM64.4058 84.0906C64.3536 83.9378 64.2526 83.8333 64.1027 83.7772C63.952 83.7227 63.7836 83.7272 63.5975 83.7908C63.4102 83.8548 63.2743 83.9542 63.1896 84.089C63.1054 84.2251 63.0894 84.3696 63.1415 84.5224C63.1933 84.6739 63.2937 84.7765 63.4427 84.8302C63.5922 84.8851 63.7606 84.8806 63.9479 84.8166C64.1339 84.7531 64.2701 84.6543 64.3564 84.5202C64.4415 84.3866 64.458 84.2434 64.4058 84.0906ZM64.7519 85.382C64.7043 85.2428 64.6139 85.145 64.4804 85.0888C64.3458 85.0329 64.199 85.0322 64.04 85.0865C63.8799 85.1412 63.7642 85.2316 63.6931 85.3577C63.6219 85.4838 63.6101 85.6165 63.6577 85.7557C63.7057 85.8962 63.7962 85.9939 63.9292 86.0489C64.0621 86.104 64.2087 86.1041 64.3689 86.0494C64.5279 85.9951 64.6437 85.9053 64.7165 85.78C64.7881 85.6552 64.7999 85.5225 64.7519 85.382ZM61.2239 87.037L61.286 87.3193L59.0238 87.8174L58.9616 87.5351L59.9287 87.3222L59.3794 84.8272L59.7074 84.755L60.2568 87.2499L61.2239 87.037ZM56.2723 85.4734L56.5793 88.3006L56.2434 88.3371L55.9364 85.5099L56.2723 85.4734ZM53.8163 88.585L53.4569 88.5863L52.625 86.4349C52.6053 86.3842 52.5862 86.3335 52.5678 86.2828C52.5494 86.2321 52.5323 86.1813 52.5165 86.1306L52.4969 86.1307C52.4815 86.1815 52.4647 86.2324 52.4467 86.2832C52.4286 86.3341 52.4099 86.3849 52.3906 86.4358L51.5721 88.593L51.2323 88.5942L52.3392 85.7289L52.6888 85.7277L53.8163 88.585ZM49.0939 85.7167L48.7498 88.5396L46.9041 88.3146L46.9391 88.0277L48.4494 88.2118L48.5635 87.2754L47.2451 87.1147L47.2801 86.8277L48.5985 86.9884L48.7235 85.9628L47.1919 85.7761L47.2268 85.4892L49.0939 85.7167ZM42.1893 85.3339L42.1819 85.3561L41.8613 85.2493L41.8687 85.2271C41.9251 85.0578 41.9064 84.9081 41.8125 84.778C41.7169 84.6488 41.558 84.5471 41.3356 84.473C41.112 84.3985 40.9261 84.3859 40.7779 84.4354C40.6293 84.486 40.5317 84.5811 40.4852 84.7207C40.4436 84.8455 40.4613 84.9633 40.5383 85.074C40.6137 85.1856 40.8 85.3348 41.0973 85.5217C41.3942 85.7099 41.5874 85.882 41.6767 86.038C41.7661 86.1941 41.7762 86.3759 41.707 86.5834C41.6367 86.7946 41.4946 86.9429 41.2809 87.0281C41.066 87.113 40.8103 87.106 40.5138 87.0072C40.2161 86.908 40.0057 86.7528 39.8825 86.5416C39.7582 86.3299 39.7326 86.1142 39.8059 85.8943L39.8133 85.8721L40.132 85.9783L40.1246 86.0005C40.0748 86.15 40.0892 86.29 40.1679 86.4205C40.2449 86.5518 40.3915 86.6535 40.6077 86.7256C40.8214 86.7968 40.9931 86.8087 41.1228 86.7613C41.2521 86.7152 41.3367 86.6322 41.3766 86.5124C41.4194 86.3839 41.4033 86.2653 41.3284 86.1566C41.2522 86.0475 41.0838 85.9104 40.8231 85.7453C40.5229 85.5547 40.3203 85.374 40.2153 85.2031C40.1087 85.0331 40.0918 84.8387 40.1646 84.6201C40.2391 84.3965 40.391 84.2433 40.6204 84.1605C40.8497 84.0777 41.1194 84.088 41.4295 84.1913C41.7383 84.2942 41.9627 84.4486 42.1028 84.6545C42.2428 84.8603 42.2716 85.0868 42.1893 85.3339ZM37.5631 82.8182L37.0982 83.7823L37.285 85.8412L36.9331 85.6715L36.8185 84.2589C36.8144 84.2135 36.8114 84.1687 36.8096 84.1245C36.8078 84.0802 36.8078 84.0369 36.8095 83.9943L36.7919 83.9858C36.7585 84.0131 36.7239 84.0398 36.6882 84.0659C36.6525 84.0921 36.6156 84.1176 36.5775 84.1427L35.4008 84.9326L35.0665 84.7714L36.7939 83.6355L37.2587 82.6714L37.5631 82.8182ZM34.3775 81.2339L32.8183 83.6121L32.5047 83.4065L32.4735 80.8287C32.4731 80.7724 32.4752 80.7193 32.4798 80.6694C32.4845 80.6196 32.4903 80.5774 32.4973 80.5431L32.4793 80.5313C32.4612 80.5661 32.4362 80.6113 32.4045 80.6668C32.3717 80.7216 32.3446 80.7653 32.3232 80.7979L31.1817 82.5391L30.9122 82.3625L32.4713 79.9842L32.7817 80.1877L32.8158 82.7931C32.8166 82.8418 32.816 82.8866 32.8141 82.9274C32.8112 82.9675 32.8068 83.0051 32.8009 83.0402L32.8173 83.0509C32.8354 83.0161 32.8564 82.9793 32.8803 82.9405C32.9031 82.9009 32.9253 82.8648 32.9467 82.8322L34.1096 81.0583L34.3775 81.2339ZM29.6601 79.7198L29.571 79.8285C29.2896 80.172 28.9793 80.3646 28.6402 80.4066C28.3003 80.4496 27.9923 80.358 27.7164 80.1318C27.4425 79.9073 27.2916 79.6642 27.2638 79.4023C27.2349 79.1396 27.2963 78.8953 27.4478 78.6693L27.4587 78.653L27.7215 78.8684L27.7107 78.8847C27.6156 79.0274 27.5736 79.1907 27.5844 79.3747C27.5952 79.5586 27.7024 79.734 27.9058 79.9007C28.1092 80.0674 28.3383 80.1289 28.593 80.0851C28.8468 80.0405 29.0846 79.8828 29.3066 79.6119L29.3958 79.5031C29.6178 79.2322 29.7258 78.968 29.7196 78.7105C29.7125 78.4521 29.6073 78.2396 29.4038 78.0728C29.2004 77.9061 29.0074 77.8355 28.8249 77.861C28.6424 77.8865 28.4905 77.9599 28.3693 78.0811L28.3554 78.0949L28.0926 77.8795L28.1065 77.8657C28.2983 77.6727 28.5258 77.5645 28.789 77.5412C29.0512 77.5171 29.3193 77.6172 29.5932 77.8417C29.8692 78.0679 30.0199 78.3513 30.0453 78.692C30.07 79.0338 29.9416 79.3764 29.6601 79.7198Z" fill="white"/>
<circle cx="44.2812" cy="123.107" r="13" fill="#D9D9D9"/>
<defs>
<linearGradient id="paint0_linear_732_358" x1="17.5" y1="173" x2="219.5" y2="168" gradientUnits="userSpaceOnUse">
<stop stop-color="#151416"/>
<stop offset="1" stop-color="#212122"/>
</linearGradient>
</defs>
</svg>
