<svg width="581" height="530" viewBox="0 0 581 530" fill="none" xmlns="http://www.w3.org/2000/svg">
<g filter="url(#filter0_d_361_541)">
<path d="M80.6 205.52C80.6 205.52 233.642 209.945 262.522 180.52C291.401 151.095 293.521 76.099 293.521 76.099C293.521 76.099 294.663 150.961 322.521 180.52C350.38 210.08 506.6 205.52 506.6 205.52C506.6 205.52 348.535 204.713 322.521 233.521C296.508 262.329 293.6 469.099 293.6 469.099C293.6 469.099 289.559 262.254 262.521 233.521C235.484 204.787 80.6 205.52 80.6 205.52Z" fill="white"/>
<path d="M404.285 254.803C404.788 255.126 405.457 254.98 405.775 254.474C418.308 234.587 425.306 211.707 426.036 188.198C426.778 164.328 421.03 140.705 409.405 119.844C397.78 98.984 380.714 81.6678 360.025 69.741C339.336 57.8141 315.798 51.7233 291.921 52.1176C268.043 52.5119 244.72 59.3764 224.436 71.9797C204.151 84.5831 187.666 102.453 176.736 123.686C165.807 144.919 160.842 168.719 162.371 192.551C163.877 216.023 171.626 238.66 184.809 258.123C185.144 258.617 185.818 258.741 186.309 258.402C186.801 258.063 186.924 257.39 186.589 256.896C173.629 237.755 166.01 215.494 164.529 192.413C163.025 168.971 167.908 145.561 178.659 124.676C189.41 103.791 205.625 86.2133 225.577 73.8163C245.529 61.4194 268.47 54.6673 291.957 54.2795C315.443 53.8917 338.595 59.8827 358.945 71.6142C379.296 83.3457 396.082 100.378 407.516 120.897C418.951 141.416 424.605 164.652 423.875 188.131C423.157 211.249 416.277 233.748 403.956 253.307C403.637 253.812 403.783 254.481 404.285 254.803Z" fill="white"/>
<path d="M302.883 459.537C302.883 459.537 302.883 454.761 302.883 438.912C302.883 423.063 302.883 371.471 302.883 371.471C302.883 371.471 303.739 427.617 324.633 449.787C345.527 471.956 462.692 468.537 462.692 468.537C462.692 468.537 340.975 468.537 324.633 468.537C308.291 468.537 302.883 468.537 302.883 468.537C302.883 468.537 302.883 468.536 302.883 464.412C302.883 460.288 302.883 459.537 302.883 459.537Z" fill="white"/>
<path d="M285.909 459.537C285.909 459.537 285.909 454.761 285.909 438.912C285.909 423.063 285.909 371.471 285.909 371.471C285.909 371.471 285.053 427.617 264.159 449.787C243.265 471.956 126.1 468.537 126.1 468.537C126.1 468.537 247.817 468.537 264.159 468.537C280.501 468.537 285.909 468.537 285.909 468.537C285.909 468.537 285.909 468.536 285.909 464.412C285.909 460.288 285.909 459.537 285.909 459.537Z" fill="white"/>
<path d="M89.1001 216.824C89.1001 216.824 97.8397 216.339 100.931 219.489C104.022 222.639 104.239 230.676 104.239 230.676C104.239 230.676 104.372 222.653 107.361 219.481C110.351 216.309 119.413 216.787 119.413 216.787C119.413 216.787 110.152 216.885 107.368 213.801C104.584 210.717 104.239 203.816 104.239 203.816C104.239 203.816 103.839 210.726 100.938 213.809C98.0364 216.892 89.1001 216.824 89.1001 216.824Z" fill="white"/>
<path d="M56.1001 266.357C56.1001 266.357 83.9745 264.289 93.635 274.139C103.296 283.99 103.507 309.584 103.507 309.584C103.507 309.584 104.408 284.013 114.123 273.729C123.838 263.445 151.6 266.357 151.6 266.357C151.6 266.357 122.6 266.357 115.1 266.357C107.6 266.357 105.1 266.357 105.1 266.357C105.1 266.357 103.1 266.357 92.6001 266.357C82.1001 266.357 56.1001 266.357 56.1001 266.357Z" fill="white"/>
<path d="M104.1 223.6L87.3501 267.1" stroke="white"/>
<path d="M104.35 224.1L120.35 267.1" stroke="white"/>
<path d="M104.1 224.1V267.1" stroke="white"/>
<path d="M462.1 217.274C462.1 217.274 470.84 216.789 473.931 219.939C477.022 223.089 477.239 231.126 477.239 231.126C477.239 231.126 477.372 223.103 480.361 219.931C483.351 216.759 492.413 217.237 492.413 217.237C492.413 217.237 483.152 217.335 480.368 214.251C477.584 211.167 477.239 204.266 477.239 204.266C477.239 204.266 476.839 211.176 473.938 214.259C471.036 217.342 462.1 217.274 462.1 217.274Z" fill="white"/>
<path d="M429.1 266.808C429.1 266.808 456.975 264.739 466.635 274.59C476.296 284.44 476.507 310.035 476.507 310.035C476.507 310.035 477.408 284.464 487.123 274.18C496.838 263.895 524.6 266.808 524.6 266.808C524.6 266.808 495.6 266.808 488.1 266.808C480.6 266.808 478.1 266.808 478.1 266.808C478.1 266.808 476.1 266.808 465.6 266.808C455.1 266.808 429.1 266.808 429.1 266.808Z" fill="white"/>
<path d="M477.1 224.05L460.35 267.55" stroke="white"/>
<path d="M477.35 224.55L493.35 267.55" stroke="white"/>
<path d="M477.1 224.55V267.55" stroke="white"/>
</g>
<defs>
<filter id="filter0_d_361_541" x="-9.9999" y="-0.000389099" width="615.201" height="551.622" filterUnits="userSpaceOnUse" color-interpolation-filters="sRGB">
<feFlood flood-opacity="0" result="BackgroundImageFix"/>
<feColorMatrix in="SourceAlpha" type="matrix" values="0 0 0 0 0 0 0 0 0 0 0 0 0 0 0 0 0 0 127 0" result="hardAlpha"/>
<feOffset dy="4"/>
<feGaussianBlur stdDeviation="28.05"/>
<feComposite in2="hardAlpha" operator="out"/>
<feColorMatrix type="matrix" values="0 0 0 0 1 0 0 0 0 1 0 0 0 0 1 0 0 0 0.6 0"/>
<feBlend mode="normal" in2="BackgroundImageFix" result="effect1_dropShadow_361_541"/>
<feBlend mode="normal" in="SourceGraphic" in2="effect1_dropShadow_361_541" result="shape"/>
</filter>
</defs>
</svg>
